<svg xmlns="http://www.w3.org/2000/svg" xmlns:xlink="http://www.w3.org/1999/xlink" width="250" zoomAndPan="magnify" viewBox="0 0 187.5 187.499992" height="250" preserveAspectRatio="xMidYMid meet" version="1.0"><defs><g/><clipPath id="0babccd5c3"><rect x="0" width="113" y="0" height="175"/></clipPath></defs><path fill="#ffffff" d="M 0 0 L 187 0 L 187 187 L 0 187 Z M 0 0 " fill-opacity="1" fill-rule="nonzero"/><path fill="#ffffff" d="M 0 0 L 187 0 L 187 187 L 0 187 Z M 0 0 " fill-opacity="1" fill-rule="nonzero"/><g transform="matrix(1, 0, 0, 1, 37, 12)"><g clip-path="url(#0babccd5c3)"><g fill="#000000" fill-opacity="0.302"><g transform="translate(1.162186, 139.106862)"><g><path d="M 10.484375 -122.40625 L 13.46875 -122.40625 C 16.144531 -122.40625 18.382812 -122.40625 20.1875 -122.40625 C 22 -122.40625 23.488281 -122.347656 24.65625 -122.234375 C 25.9375 -122.234375 27.128906 -122.171875 28.234375 -122.046875 C 29.347656 -121.929688 30.3125 -121.757812 31.125 -121.53125 C 33.925781 -120.945312 35.789062 -120.015625 36.71875 -118.734375 C 38.46875 -116.984375 39.34375 -113.894531 39.34375 -109.46875 C 39.34375 -107.25 39.164062 -104.21875 38.8125 -100.375 C 38.695312 -99.207031 38.492188 -97.457031 38.203125 -95.125 C 37.910156 -92.789062 37.472656 -89.9375 36.890625 -86.5625 L 77.984375 -86.5625 C 80.671875 -86.5625 82.972656 -86.5625 84.890625 -86.5625 C 86.816406 -86.5625 88.304688 -86.5 89.359375 -86.375 C 93.316406 -86.03125 95.820312 -85.039062 96.875 -83.40625 C 97.925781 -82.238281 98.453125 -80.140625 98.453125 -77.109375 C 98.453125 -76.765625 98.453125 -76.414062 98.453125 -76.0625 C 98.453125 -75.71875 98.390625 -75.3125 98.265625 -74.84375 C 98.265625 -73.789062 98.148438 -72.1875 97.921875 -70.03125 C 97.691406 -67.875 97.34375 -65.222656 96.875 -62.078125 L 91.625 -24.65625 C 91.15625 -20.570312 90.660156 -17.21875 90.140625 -14.59375 C 89.617188 -11.976562 89.125 -10.03125 88.65625 -8.75 C 87.957031 -6.175781 86.90625 -4.304688 85.5 -3.140625 C 83.757812 -1.628906 81.082031 -0.695312 77.46875 -0.34375 C 76.300781 -0.226562 74.550781 -0.140625 72.21875 -0.078125 C 69.882812 -0.0234375 66.910156 0 63.296875 0 L 24.828125 0 C 20.742188 0 17.363281 -0.0859375 14.6875 -0.265625 C 12.007812 -0.441406 10.03125 -0.585938 8.75 -0.703125 C 5.476562 -1.398438 3.378906 -2.738281 2.453125 -4.71875 C 2.328125 -5.300781 2.175781 -6 2 -6.8125 C 1.832031 -7.632812 1.75 -8.507812 1.75 -9.4375 C 1.75 -11.882812 2.273438 -16.957031 3.328125 -24.65625 L 8.5625 -62.078125 L 12.0625 -86.5625 L 15.5625 -111.203125 C 15.675781 -111.785156 15.734375 -112.253906 15.734375 -112.609375 C 15.734375 -112.960938 15.734375 -113.195312 15.734375 -113.3125 L 15.734375 -114.015625 C 15.734375 -114.710938 15.5625 -115.410156 15.21875 -116.109375 C 14.75 -117.035156 14.164062 -117.910156 13.46875 -118.734375 C 13.226562 -119.078125 12.847656 -119.566406 12.328125 -120.203125 C 11.804688 -120.847656 11.191406 -121.582031 10.484375 -122.40625 Z M 33.390625 -62.078125 L 29.203125 -31.125 C 28.847656 -29.03125 28.671875 -27.691406 28.671875 -27.109375 C 28.671875 -26.640625 28.789062 -26.171875 29.03125 -25.703125 C 29.257812 -25.359375 29.722656 -25.066406 30.421875 -24.828125 C 30.773438 -24.828125 31.269531 -24.796875 31.90625 -24.734375 C 32.550781 -24.679688 33.398438 -24.65625 34.453125 -24.65625 L 66.796875 -24.65625 L 71.171875 -55.78125 C 71.398438 -56.832031 71.515625 -57.675781 71.515625 -58.3125 C 71.515625 -58.957031 71.515625 -59.394531 71.515625 -59.625 C 71.515625 -60.320312 71.398438 -60.789062 71.171875 -61.03125 C 70.929688 -61.613281 70.347656 -61.90625 69.421875 -61.90625 C 69.066406 -62.019531 67.957031 -62.078125 66.09375 -62.078125 Z M 33.390625 -62.078125 "/></g></g></g><g fill="#000000" fill-opacity="0.502"><g transform="translate(5.93489, 138.52085)"><g><path d="M 10.484375 -122.40625 L 13.46875 -122.40625 C 16.144531 -122.40625 18.382812 -122.40625 20.1875 -122.40625 C 22 -122.40625 23.488281 -122.347656 24.65625 -122.234375 C 25.9375 -122.234375 27.128906 -122.171875 28.234375 -122.046875 C 29.347656 -121.929688 30.3125 -121.757812 31.125 -121.53125 C 33.925781 -120.945312 35.789062 -120.015625 36.71875 -118.734375 C 38.46875 -116.984375 39.34375 -113.894531 39.34375 -109.46875 C 39.34375 -107.25 39.164062 -104.21875 38.8125 -100.375 C 38.695312 -99.207031 38.492188 -97.457031 38.203125 -95.125 C 37.910156 -92.789062 37.472656 -89.9375 36.890625 -86.5625 L 77.984375 -86.5625 C 80.671875 -86.5625 82.972656 -86.5625 84.890625 -86.5625 C 86.816406 -86.5625 88.304688 -86.5 89.359375 -86.375 C 93.316406 -86.03125 95.820312 -85.039062 96.875 -83.40625 C 97.925781 -82.238281 98.453125 -80.140625 98.453125 -77.109375 C 98.453125 -76.765625 98.453125 -76.414062 98.453125 -76.0625 C 98.453125 -75.71875 98.390625 -75.3125 98.265625 -74.84375 C 98.265625 -73.789062 98.148438 -72.1875 97.921875 -70.03125 C 97.691406 -67.875 97.34375 -65.222656 96.875 -62.078125 L 91.625 -24.65625 C 91.15625 -20.570312 90.660156 -17.21875 90.140625 -14.59375 C 89.617188 -11.976562 89.125 -10.03125 88.65625 -8.75 C 87.957031 -6.175781 86.90625 -4.304688 85.5 -3.140625 C 83.757812 -1.628906 81.082031 -0.695312 77.46875 -0.34375 C 76.300781 -0.226562 74.550781 -0.140625 72.21875 -0.078125 C 69.882812 -0.0234375 66.910156 0 63.296875 0 L 24.828125 0 C 20.742188 0 17.363281 -0.0859375 14.6875 -0.265625 C 12.007812 -0.441406 10.03125 -0.585938 8.75 -0.703125 C 5.476562 -1.398438 3.378906 -2.738281 2.453125 -4.71875 C 2.328125 -5.300781 2.175781 -6 2 -6.8125 C 1.832031 -7.632812 1.75 -8.507812 1.75 -9.4375 C 1.75 -11.882812 2.273438 -16.957031 3.328125 -24.65625 L 8.5625 -62.078125 L 12.0625 -86.5625 L 15.5625 -111.203125 C 15.675781 -111.785156 15.734375 -112.253906 15.734375 -112.609375 C 15.734375 -112.960938 15.734375 -113.195312 15.734375 -113.3125 L 15.734375 -114.015625 C 15.734375 -114.710938 15.5625 -115.410156 15.21875 -116.109375 C 14.75 -117.035156 14.164062 -117.910156 13.46875 -118.734375 C 13.226562 -119.078125 12.847656 -119.566406 12.328125 -120.203125 C 11.804688 -120.847656 11.191406 -121.582031 10.484375 -122.40625 Z M 33.390625 -62.078125 L 29.203125 -31.125 C 28.847656 -29.03125 28.671875 -27.691406 28.671875 -27.109375 C 28.671875 -26.640625 28.789062 -26.171875 29.03125 -25.703125 C 29.257812 -25.359375 29.722656 -25.066406 30.421875 -24.828125 C 30.773438 -24.828125 31.269531 -24.796875 31.90625 -24.734375 C 32.550781 -24.679688 33.398438 -24.65625 34.453125 -24.65625 L 66.796875 -24.65625 L 71.171875 -55.78125 C 71.398438 -56.832031 71.515625 -57.675781 71.515625 -58.3125 C 71.515625 -58.957031 71.515625 -59.394531 71.515625 -59.625 C 71.515625 -60.320312 71.398438 -60.789062 71.171875 -61.03125 C 70.929688 -61.613281 70.347656 -61.90625 69.421875 -61.90625 C 69.066406 -62.019531 67.957031 -62.078125 66.09375 -62.078125 Z M 33.390625 -62.078125 "/></g></g></g><g fill="#000000" fill-opacity="1"><g transform="translate(10.707595, 137.934835)"><g><path d="M 10.484375 -122.40625 L 13.46875 -122.40625 C 16.144531 -122.40625 18.382812 -122.40625 20.1875 -122.40625 C 22 -122.40625 23.488281 -122.347656 24.65625 -122.234375 C 25.9375 -122.234375 27.128906 -122.171875 28.234375 -122.046875 C 29.347656 -121.929688 30.3125 -121.757812 31.125 -121.53125 C 33.925781 -120.945312 35.789062 -120.015625 36.71875 -118.734375 C 38.46875 -116.984375 39.34375 -113.894531 39.34375 -109.46875 C 39.34375 -107.25 39.164062 -104.21875 38.8125 -100.375 C 38.695312 -99.207031 38.492188 -97.457031 38.203125 -95.125 C 37.910156 -92.789062 37.472656 -89.9375 36.890625 -86.5625 L 77.984375 -86.5625 C 80.671875 -86.5625 82.972656 -86.5625 84.890625 -86.5625 C 86.816406 -86.5625 88.304688 -86.5 89.359375 -86.375 C 93.316406 -86.03125 95.820312 -85.039062 96.875 -83.40625 C 97.925781 -82.238281 98.453125 -80.140625 98.453125 -77.109375 C 98.453125 -76.765625 98.453125 -76.414062 98.453125 -76.0625 C 98.453125 -75.71875 98.390625 -75.3125 98.265625 -74.84375 C 98.265625 -73.789062 98.148438 -72.1875 97.921875 -70.03125 C 97.691406 -67.875 97.34375 -65.222656 96.875 -62.078125 L 91.625 -24.65625 C 91.15625 -20.570312 90.660156 -17.21875 90.140625 -14.59375 C 89.617188 -11.976562 89.125 -10.03125 88.65625 -8.75 C 87.957031 -6.175781 86.90625 -4.304688 85.5 -3.140625 C 83.757812 -1.628906 81.082031 -0.695312 77.46875 -0.34375 C 76.300781 -0.226562 74.550781 -0.140625 72.21875 -0.078125 C 69.882812 -0.0234375 66.910156 0 63.296875 0 L 24.828125 0 C 20.742188 0 17.363281 -0.0859375 14.6875 -0.265625 C 12.007812 -0.441406 10.03125 -0.585938 8.75 -0.703125 C 5.476562 -1.398438 3.378906 -2.738281 2.453125 -4.71875 C 2.328125 -5.300781 2.175781 -6 2 -6.8125 C 1.832031 -7.632812 1.75 -8.507812 1.75 -9.4375 C 1.75 -11.882812 2.273438 -16.957031 3.328125 -24.65625 L 8.5625 -62.078125 L 12.0625 -86.5625 L 15.5625 -111.203125 C 15.675781 -111.785156 15.734375 -112.253906 15.734375 -112.609375 C 15.734375 -112.960938 15.734375 -113.195312 15.734375 -113.3125 L 15.734375 -114.015625 C 15.734375 -114.710938 15.5625 -115.410156 15.21875 -116.109375 C 14.75 -117.035156 14.164062 -117.910156 13.46875 -118.734375 C 13.226562 -119.078125 12.847656 -119.566406 12.328125 -120.203125 C 11.804688 -120.847656 11.191406 -121.582031 10.484375 -122.40625 Z M 33.390625 -62.078125 L 29.203125 -31.125 C 28.847656 -29.03125 28.671875 -27.691406 28.671875 -27.109375 C 28.671875 -26.640625 28.789062 -26.171875 29.03125 -25.703125 C 29.257812 -25.359375 29.722656 -25.066406 30.421875 -24.828125 C 30.773438 -24.828125 31.269531 -24.796875 31.90625 -24.734375 C 32.550781 -24.679688 33.398438 -24.65625 34.453125 -24.65625 L 66.796875 -24.65625 L 71.171875 -55.78125 C 71.398438 -56.832031 71.515625 -57.675781 71.515625 -58.3125 C 71.515625 -58.957031 71.515625 -59.394531 71.515625 -59.625 C 71.515625 -60.320312 71.398438 -60.789062 71.171875 -61.03125 C 70.929688 -61.613281 70.347656 -61.90625 69.421875 -61.90625 C 69.066406 -62.019531 67.957031 -62.078125 66.09375 -62.078125 Z M 33.390625 -62.078125 "/></g></g></g></g></g></svg>